<mxfile host="65bd71144e">
    <diagram name="Page-1" id="yC82g_gzDiA3qltbUVSg">
        <mxGraphModel dx="2432" dy="2743" grid="1" gridSize="10" guides="1" tooltips="1" connect="1" arrows="1" fold="1" page="1" pageScale="1" pageWidth="827" pageHeight="1169" math="0" shadow="0">
            <root>
                <mxCell id="0"/>
                <mxCell id="1" parent="0"/>
                <mxCell id="7HGyzuE9P1A4j1f57GSG-40" value="absence" style="swimlane;fontStyle=0;childLayout=stackLayout;horizontal=1;startSize=30;horizontalStack=0;resizeParent=1;resizeParentMax=0;resizeLast=0;collapsible=1;marginBottom=0;whiteSpace=wrap;html=1;" parent="1" vertex="1">
                    <mxGeometry x="50" y="60" width="140" height="210" as="geometry"/>
                </mxCell>
                <mxCell id="7HGyzuE9P1A4j1f57GSG-41" value="id_absence" style="text;strokeColor=none;fillColor=none;align=left;verticalAlign=middle;spacingLeft=4;spacingRight=4;overflow=hidden;points=[[0,0.5],[1,0.5]];portConstraint=eastwest;rotatable=0;whiteSpace=wrap;html=1;" parent="7HGyzuE9P1A4j1f57GSG-40" vertex="1">
                    <mxGeometry y="30" width="140" height="30" as="geometry"/>
                </mxCell>
                <mxCell id="7HGyzuE9P1A4j1f57GSG-42" value="dt_debut" style="text;strokeColor=none;fillColor=none;align=left;verticalAlign=middle;spacingLeft=4;spacingRight=4;overflow=hidden;points=[[0,0.5],[1,0.5]];portConstraint=eastwest;rotatable=0;whiteSpace=wrap;html=1;" parent="7HGyzuE9P1A4j1f57GSG-40" vertex="1">
                    <mxGeometry y="60" width="140" height="30" as="geometry"/>
                </mxCell>
                <mxCell id="7HGyzuE9P1A4j1f57GSG-43" value="dt_fin" style="text;strokeColor=none;fillColor=none;align=left;verticalAlign=middle;spacingLeft=4;spacingRight=4;overflow=hidden;points=[[0,0.5],[1,0.5]];portConstraint=eastwest;rotatable=0;whiteSpace=wrap;html=1;" parent="7HGyzuE9P1A4j1f57GSG-40" vertex="1">
                    <mxGeometry y="90" width="140" height="30" as="geometry"/>
                </mxCell>
                <mxCell id="7HGyzuE9P1A4j1f57GSG-44" value="type" style="text;strokeColor=none;fillColor=none;align=left;verticalAlign=middle;spacingLeft=4;spacingRight=4;overflow=hidden;points=[[0,0.5],[1,0.5]];portConstraint=eastwest;rotatable=0;whiteSpace=wrap;html=1;" parent="7HGyzuE9P1A4j1f57GSG-40" vertex="1">
                    <mxGeometry y="120" width="140" height="30" as="geometry"/>
                </mxCell>
                <mxCell id="7HGyzuE9P1A4j1f57GSG-45" value="status" style="text;strokeColor=none;fillColor=none;align=left;verticalAlign=middle;spacingLeft=4;spacingRight=4;overflow=hidden;points=[[0,0.5],[1,0.5]];portConstraint=eastwest;rotatable=0;whiteSpace=wrap;html=1;" parent="7HGyzuE9P1A4j1f57GSG-40" vertex="1">
                    <mxGeometry y="150" width="140" height="30" as="geometry"/>
                </mxCell>
                <mxCell id="7HGyzuE9P1A4j1f57GSG-46" value="motif" style="text;strokeColor=none;fillColor=none;align=left;verticalAlign=middle;spacingLeft=4;spacingRight=4;overflow=hidden;points=[[0,0.5],[1,0.5]];portConstraint=eastwest;rotatable=0;whiteSpace=wrap;html=1;" parent="7HGyzuE9P1A4j1f57GSG-40" vertex="1">
                    <mxGeometry y="180" width="140" height="30" as="geometry"/>
                </mxCell>
                <mxCell id="7HGyzuE9P1A4j1f57GSG-47" value="user" style="swimlane;fontStyle=0;childLayout=stackLayout;horizontal=1;startSize=30;horizontalStack=0;resizeParent=1;resizeParentMax=0;resizeLast=0;collapsible=1;marginBottom=0;whiteSpace=wrap;html=1;" parent="1" vertex="1">
                    <mxGeometry x="506.75" y="60" width="140" height="210" as="geometry"/>
                </mxCell>
                <mxCell id="7HGyzuE9P1A4j1f57GSG-48" value="id_user" style="text;strokeColor=none;fillColor=none;align=left;verticalAlign=middle;spacingLeft=4;spacingRight=4;overflow=hidden;points=[[0,0.5],[1,0.5]];portConstraint=eastwest;rotatable=0;whiteSpace=wrap;html=1;" parent="7HGyzuE9P1A4j1f57GSG-47" vertex="1">
                    <mxGeometry y="30" width="140" height="30" as="geometry"/>
                </mxCell>
                <mxCell id="7HGyzuE9P1A4j1f57GSG-50" value="nom" style="text;strokeColor=none;fillColor=none;align=left;verticalAlign=middle;spacingLeft=4;spacingRight=4;overflow=hidden;points=[[0,0.5],[1,0.5]];portConstraint=eastwest;rotatable=0;whiteSpace=wrap;html=1;" parent="7HGyzuE9P1A4j1f57GSG-47" vertex="1">
                    <mxGeometry y="60" width="140" height="30" as="geometry"/>
                </mxCell>
                <mxCell id="7HGyzuE9P1A4j1f57GSG-49" value="prenom" style="text;strokeColor=none;fillColor=none;align=left;verticalAlign=middle;spacingLeft=4;spacingRight=4;overflow=hidden;points=[[0,0.5],[1,0.5]];portConstraint=eastwest;rotatable=0;whiteSpace=wrap;html=1;" parent="7HGyzuE9P1A4j1f57GSG-47" vertex="1">
                    <mxGeometry y="90" width="140" height="30" as="geometry"/>
                </mxCell>
                <mxCell id="7HGyzuE9P1A4j1f57GSG-72" value="mail" style="text;strokeColor=none;fillColor=none;align=left;verticalAlign=middle;spacingLeft=4;spacingRight=4;overflow=hidden;points=[[0,0.5],[1,0.5]];portConstraint=eastwest;rotatable=0;whiteSpace=wrap;html=1;" parent="7HGyzuE9P1A4j1f57GSG-47" vertex="1">
                    <mxGeometry y="120" width="140" height="30" as="geometry"/>
                </mxCell>
                <mxCell id="7HGyzuE9P1A4j1f57GSG-51" value="role" style="text;strokeColor=none;fillColor=none;align=left;verticalAlign=middle;spacingLeft=4;spacingRight=4;overflow=hidden;points=[[0,0.5],[1,0.5]];portConstraint=eastwest;rotatable=0;whiteSpace=wrap;html=1;" parent="7HGyzuE9P1A4j1f57GSG-47" vertex="1">
                    <mxGeometry y="150" width="140" height="30" as="geometry"/>
                </mxCell>
                <mxCell id="7HGyzuE9P1A4j1f57GSG-71" value="mdp" style="text;strokeColor=none;fillColor=none;align=left;verticalAlign=middle;spacingLeft=4;spacingRight=4;overflow=hidden;points=[[0,0.5],[1,0.5]];portConstraint=eastwest;rotatable=0;whiteSpace=wrap;html=1;" parent="7HGyzuE9P1A4j1f57GSG-47" vertex="1">
                    <mxGeometry y="180" width="140" height="30" as="geometry"/>
                </mxCell>
                <mxCell id="7HGyzuE9P1A4j1f57GSG-52" value="" style="endArrow=none;html=1;rounded=0;exitX=0;exitY=0.5;exitDx=0;exitDy=0;entryX=1;entryY=0.5;entryDx=0;entryDy=0;" parent="1" source="7HGyzuE9P1A4j1f57GSG-78" target="7HGyzuE9P1A4j1f57GSG-43" edge="1">
                    <mxGeometry width="50" height="50" relative="1" as="geometry">
                        <mxPoint x="490" y="-330" as="sourcePoint"/>
                        <mxPoint x="400" y="-132" as="targetPoint"/>
                    </mxGeometry>
                </mxCell>
                <mxCell id="7HGyzuE9P1A4j1f57GSG-82" value="" style="endArrow=none;html=1;rounded=0;exitX=0;exitY=0.5;exitDx=0;exitDy=0;entryX=1;entryY=0.5;entryDx=0;entryDy=0;" parent="1" source="7HGyzuE9P1A4j1f57GSG-89" target="7HGyzuE9P1A4j1f57GSG-78" edge="1">
                    <mxGeometry width="50" height="50" relative="1" as="geometry">
                        <mxPoint x="530" y="135" as="sourcePoint"/>
                        <mxPoint x="210" y="135" as="targetPoint"/>
                    </mxGeometry>
                </mxCell>
                <mxCell id="7HGyzuE9P1A4j1f57GSG-78" value="1.1" style="text;html=1;align=center;verticalAlign=middle;resizable=0;points=[];autosize=1;strokeColor=none;fillColor=none;" parent="1" vertex="1">
                    <mxGeometry x="220" y="150" width="40" height="30" as="geometry"/>
                </mxCell>
                <mxCell id="7HGyzuE9P1A4j1f57GSG-84" value="" style="endArrow=none;html=1;rounded=0;entryX=1;entryY=0.5;entryDx=0;entryDy=0;" parent="1" source="7HGyzuE9P1A4j1f57GSG-47" target="7HGyzuE9P1A4j1f57GSG-83" edge="1">
                    <mxGeometry width="50" height="50" relative="1" as="geometry">
                        <mxPoint x="530" y="135" as="sourcePoint"/>
                        <mxPoint x="260" y="135" as="targetPoint"/>
                    </mxGeometry>
                </mxCell>
                <mxCell id="7HGyzuE9P1A4j1f57GSG-83" value="0.n" style="text;html=1;align=center;verticalAlign=middle;resizable=0;points=[];autosize=1;strokeColor=none;fillColor=none;" parent="1" vertex="1">
                    <mxGeometry x="440" y="150" width="40" height="30" as="geometry"/>
                </mxCell>
                <mxCell id="7HGyzuE9P1A4j1f57GSG-90" value="" style="endArrow=none;html=1;rounded=0;exitX=0;exitY=0.5;exitDx=0;exitDy=0;entryX=1;entryY=0.5;entryDx=0;entryDy=0;" parent="1" source="7HGyzuE9P1A4j1f57GSG-83" target="7HGyzuE9P1A4j1f57GSG-89" edge="1">
                    <mxGeometry width="50" height="50" relative="1" as="geometry">
                        <mxPoint x="470" y="135" as="sourcePoint"/>
                        <mxPoint x="260" y="135" as="targetPoint"/>
                    </mxGeometry>
                </mxCell>
                <mxCell id="7HGyzuE9P1A4j1f57GSG-89" value="associé" style="ellipse;whiteSpace=wrap;html=1;" parent="1" vertex="1">
                    <mxGeometry x="290" y="125" width="120" height="80" as="geometry"/>
                </mxCell>
                <mxCell id="7HGyzuE9P1A4j1f57GSG-103" value="département/service" style="swimlane;fontStyle=0;childLayout=stackLayout;horizontal=1;startSize=30;horizontalStack=0;resizeParent=1;resizeParentMax=0;resizeLast=0;collapsible=1;marginBottom=0;whiteSpace=wrap;html=1;" parent="1" vertex="1">
                    <mxGeometry x="687" y="-80" width="140" height="90" as="geometry"/>
                </mxCell>
                <mxCell id="7HGyzuE9P1A4j1f57GSG-104" value="id_deppartement" style="text;strokeColor=none;fillColor=none;align=left;verticalAlign=middle;spacingLeft=4;spacingRight=4;overflow=hidden;points=[[0,0.5],[1,0.5]];portConstraint=eastwest;rotatable=0;whiteSpace=wrap;html=1;" parent="7HGyzuE9P1A4j1f57GSG-103" vertex="1">
                    <mxGeometry y="30" width="140" height="30" as="geometry"/>
                </mxCell>
                <mxCell id="7HGyzuE9P1A4j1f57GSG-105" value="nom" style="text;strokeColor=none;fillColor=none;align=left;verticalAlign=middle;spacingLeft=4;spacingRight=4;overflow=hidden;points=[[0,0.5],[1,0.5]];portConstraint=eastwest;rotatable=0;whiteSpace=wrap;html=1;" parent="7HGyzuE9P1A4j1f57GSG-103" vertex="1">
                    <mxGeometry y="60" width="140" height="30" as="geometry"/>
                </mxCell>
                <mxCell id="7HGyzuE9P1A4j1f57GSG-107" value="" style="endArrow=none;html=1;rounded=0;" parent="1" source="sHTVW4TpM1ne1m5UK_3u-48" target="7HGyzuE9P1A4j1f57GSG-103" edge="1">
                    <mxGeometry width="50" height="50" relative="1" as="geometry">
                        <mxPoint x="520" y="370" as="sourcePoint"/>
                        <mxPoint x="570" y="320" as="targetPoint"/>
                    </mxGeometry>
                </mxCell>
                <mxCell id="7HGyzuE9P1A4j1f57GSG-109" value="" style="endArrow=none;html=1;rounded=0;entryX=0;entryY=0.5;entryDx=0;entryDy=0;exitX=1;exitY=0.5;exitDx=0;exitDy=0;" parent="1" source="7HGyzuE9P1A4j1f57GSG-49" target="7HGyzuE9P1A4j1f57GSG-108" edge="1">
                    <mxGeometry width="50" height="50" relative="1" as="geometry">
                        <mxPoint x="660" y="135" as="sourcePoint"/>
                        <mxPoint x="860" y="135" as="targetPoint"/>
                    </mxGeometry>
                </mxCell>
                <mxCell id="204" value="&lt;span style=&quot;font-size: 12px; background-color: rgb(42, 37, 47);&quot;&gt;1.1&lt;/span&gt;" style="edgeLabel;html=1;align=center;verticalAlign=middle;resizable=0;points=[];fontSize=16;" vertex="1" connectable="0" parent="7HGyzuE9P1A4j1f57GSG-109">
                    <mxGeometry x="-0.3897" y="-2" relative="1" as="geometry">
                        <mxPoint as="offset"/>
                    </mxGeometry>
                </mxCell>
                <mxCell id="sHTVW4TpM1ne1m5UK_3u-35" value="absence specifique" style="swimlane;fontStyle=0;childLayout=stackLayout;horizontal=1;startSize=30;horizontalStack=0;resizeParent=1;resizeParentMax=0;resizeLast=0;collapsible=1;marginBottom=0;whiteSpace=wrap;html=1;" parent="1" vertex="1">
                    <mxGeometry x="220" y="-500" width="140" height="210" as="geometry"/>
                </mxCell>
                <mxCell id="sHTVW4TpM1ne1m5UK_3u-36" value="id_absence_specifique" style="text;strokeColor=none;fillColor=none;align=left;verticalAlign=middle;spacingLeft=4;spacingRight=4;overflow=hidden;points=[[0,0.5],[1,0.5]];portConstraint=eastwest;rotatable=0;whiteSpace=wrap;html=1;" parent="sHTVW4TpM1ne1m5UK_3u-35" vertex="1">
                    <mxGeometry y="30" width="140" height="30" as="geometry"/>
                </mxCell>
                <mxCell id="sHTVW4TpM1ne1m5UK_3u-37" value="nom" style="text;strokeColor=none;fillColor=none;align=left;verticalAlign=middle;spacingLeft=4;spacingRight=4;overflow=hidden;points=[[0,0.5],[1,0.5]];portConstraint=eastwest;rotatable=0;whiteSpace=wrap;html=1;" parent="sHTVW4TpM1ne1m5UK_3u-35" vertex="1">
                    <mxGeometry y="60" width="140" height="30" as="geometry"/>
                </mxCell>
                <mxCell id="23" value="dt_debut" style="text;strokeColor=none;fillColor=none;align=left;verticalAlign=middle;spacingLeft=4;spacingRight=4;overflow=hidden;points=[[0,0.5],[1,0.5]];portConstraint=eastwest;rotatable=0;whiteSpace=wrap;html=1;" vertex="1" parent="sHTVW4TpM1ne1m5UK_3u-35">
                    <mxGeometry y="90" width="140" height="30" as="geometry"/>
                </mxCell>
                <mxCell id="24" value="dt_fin" style="text;strokeColor=none;fillColor=none;align=left;verticalAlign=middle;spacingLeft=4;spacingRight=4;overflow=hidden;points=[[0,0.5],[1,0.5]];portConstraint=eastwest;rotatable=0;whiteSpace=wrap;html=1;" vertex="1" parent="sHTVW4TpM1ne1m5UK_3u-35">
                    <mxGeometry y="120" width="140" height="30" as="geometry"/>
                </mxCell>
                <mxCell id="25" value="status" style="text;strokeColor=none;fillColor=none;align=left;verticalAlign=middle;spacingLeft=4;spacingRight=4;overflow=hidden;points=[[0,0.5],[1,0.5]];portConstraint=eastwest;rotatable=0;whiteSpace=wrap;html=1;" vertex="1" parent="sHTVW4TpM1ne1m5UK_3u-35">
                    <mxGeometry y="150" width="140" height="30" as="geometry"/>
                </mxCell>
                <mxCell id="26" value="motif" style="text;strokeColor=none;fillColor=none;align=left;verticalAlign=middle;spacingLeft=4;spacingRight=4;overflow=hidden;points=[[0,0.5],[1,0.5]];portConstraint=eastwest;rotatable=0;whiteSpace=wrap;html=1;" vertex="1" parent="sHTVW4TpM1ne1m5UK_3u-35">
                    <mxGeometry y="180" width="140" height="30" as="geometry"/>
                </mxCell>
                <mxCell id="sHTVW4TpM1ne1m5UK_3u-39" value="" style="endArrow=none;html=1;rounded=0;" parent="1" source="sHTVW4TpM1ne1m5UK_3u-54" target="sHTVW4TpM1ne1m5UK_3u-41" edge="1">
                    <mxGeometry width="50" height="50" relative="1" as="geometry">
                        <mxPoint x="430" y="480" as="sourcePoint"/>
                        <mxPoint x="1050" y="340" as="targetPoint"/>
                    </mxGeometry>
                </mxCell>
                <mxCell id="sHTVW4TpM1ne1m5UK_3u-41" value="organisation" style="swimlane;fontStyle=0;childLayout=stackLayout;horizontal=1;startSize=30;horizontalStack=0;resizeParent=1;resizeParentMax=0;resizeLast=0;collapsible=1;marginBottom=0;whiteSpace=wrap;html=1;" parent="1" vertex="1">
                    <mxGeometry x="220" y="-80" width="140" height="90" as="geometry"/>
                </mxCell>
                <mxCell id="sHTVW4TpM1ne1m5UK_3u-42" value="id_orga" style="text;strokeColor=none;fillColor=none;align=left;verticalAlign=middle;spacingLeft=4;spacingRight=4;overflow=hidden;points=[[0,0.5],[1,0.5]];portConstraint=eastwest;rotatable=0;whiteSpace=wrap;html=1;" parent="sHTVW4TpM1ne1m5UK_3u-41" vertex="1">
                    <mxGeometry y="30" width="140" height="30" as="geometry"/>
                </mxCell>
                <mxCell id="sHTVW4TpM1ne1m5UK_3u-43" value="nom" style="text;strokeColor=none;fillColor=none;align=left;verticalAlign=middle;spacingLeft=4;spacingRight=4;overflow=hidden;points=[[0,0.5],[1,0.5]];portConstraint=eastwest;rotatable=0;whiteSpace=wrap;html=1;" parent="sHTVW4TpM1ne1m5UK_3u-41" vertex="1">
                    <mxGeometry y="60" width="140" height="30" as="geometry"/>
                </mxCell>
                <mxCell id="sHTVW4TpM1ne1m5UK_3u-46" value="" style="endArrow=none;html=1;rounded=0;" parent="1" source="7HGyzuE9P1A4j1f57GSG-108" target="7HGyzuE9P1A4j1f57GSG-103" edge="1">
                    <mxGeometry width="50" height="50" relative="1" as="geometry">
                        <mxPoint x="430" as="sourcePoint"/>
                        <mxPoint x="480" y="-50" as="targetPoint"/>
                    </mxGeometry>
                </mxCell>
                <mxCell id="203" value="&lt;span style=&quot;font-size: 12px; background-color: rgb(42, 37, 47);&quot;&gt;1.n&lt;/span&gt;" style="edgeLabel;html=1;align=center;verticalAlign=middle;resizable=0;points=[];fontSize=16;" vertex="1" connectable="0" parent="sHTVW4TpM1ne1m5UK_3u-46">
                    <mxGeometry x="0.7391" relative="1" as="geometry">
                        <mxPoint as="offset"/>
                    </mxGeometry>
                </mxCell>
                <mxCell id="sHTVW4TpM1ne1m5UK_3u-49" value="" style="endArrow=none;html=1;rounded=0;" parent="1" source="sHTVW4TpM1ne1m5UK_3u-56" target="sHTVW4TpM1ne1m5UK_3u-48" edge="1">
                    <mxGeometry width="50" height="50" relative="1" as="geometry">
                        <mxPoint x="550" y="-35" as="sourcePoint"/>
                        <mxPoint x="687" y="-35" as="targetPoint"/>
                    </mxGeometry>
                </mxCell>
                <mxCell id="sHTVW4TpM1ne1m5UK_3u-48" value="&lt;div&gt;1.1&lt;/div&gt;" style="text;html=1;align=center;verticalAlign=middle;resizable=0;points=[];autosize=1;strokeColor=none;fillColor=none;" parent="1" vertex="1">
                    <mxGeometry x="640" y="-50" width="40" height="30" as="geometry"/>
                </mxCell>
                <mxCell id="sHTVW4TpM1ne1m5UK_3u-51" value="" style="endArrow=none;html=1;rounded=0;" parent="1" source="sHTVW4TpM1ne1m5UK_3u-41" target="sHTVW4TpM1ne1m5UK_3u-50" edge="1">
                    <mxGeometry width="50" height="50" relative="1" as="geometry">
                        <mxPoint x="550" y="-35" as="sourcePoint"/>
                        <mxPoint x="640" y="-35" as="targetPoint"/>
                    </mxGeometry>
                </mxCell>
                <mxCell id="sHTVW4TpM1ne1m5UK_3u-50" value="1.n" style="text;html=1;align=center;verticalAlign=middle;resizable=0;points=[];autosize=1;strokeColor=none;fillColor=none;" parent="1" vertex="1">
                    <mxGeometry x="360" y="-50" width="40" height="30" as="geometry"/>
                </mxCell>
                <mxCell id="sHTVW4TpM1ne1m5UK_3u-53" value="" style="endArrow=none;html=1;rounded=0;" parent="1" source="sHTVW4TpM1ne1m5UK_3u-35" target="sHTVW4TpM1ne1m5UK_3u-52" edge="1">
                    <mxGeometry width="50" height="50" relative="1" as="geometry">
                        <mxPoint x="480" y="-170" as="sourcePoint"/>
                        <mxPoint x="480" y="-80" as="targetPoint"/>
                    </mxGeometry>
                </mxCell>
                <mxCell id="sHTVW4TpM1ne1m5UK_3u-52" value="1, 1" style="text;html=1;align=center;verticalAlign=middle;resizable=0;points=[];autosize=1;strokeColor=none;fillColor=none;" parent="1" vertex="1">
                    <mxGeometry x="270" y="-270" width="40" height="30" as="geometry"/>
                </mxCell>
                <mxCell id="sHTVW4TpM1ne1m5UK_3u-55" value="" style="endArrow=none;html=1;rounded=0;" parent="1" source="sHTVW4TpM1ne1m5UK_3u-58" target="sHTVW4TpM1ne1m5UK_3u-54" edge="1">
                    <mxGeometry width="50" height="50" relative="1" as="geometry">
                        <mxPoint x="471" y="-140" as="sourcePoint"/>
                        <mxPoint x="476" y="-80" as="targetPoint"/>
                    </mxGeometry>
                </mxCell>
                <mxCell id="sHTVW4TpM1ne1m5UK_3u-54" value="1.n" style="text;html=1;align=center;verticalAlign=middle;resizable=0;points=[];autosize=1;strokeColor=none;fillColor=none;" parent="1" vertex="1">
                    <mxGeometry x="270" y="-120" width="40" height="30" as="geometry"/>
                </mxCell>
                <mxCell id="sHTVW4TpM1ne1m5UK_3u-57" value="" style="endArrow=none;html=1;rounded=0;" parent="1" source="sHTVW4TpM1ne1m5UK_3u-50" target="sHTVW4TpM1ne1m5UK_3u-56" edge="1">
                    <mxGeometry width="50" height="50" relative="1" as="geometry">
                        <mxPoint x="400" y="-35" as="sourcePoint"/>
                        <mxPoint x="640" y="-35" as="targetPoint"/>
                    </mxGeometry>
                </mxCell>
                <mxCell id="sHTVW4TpM1ne1m5UK_3u-56" value="dépend" style="ellipse;whiteSpace=wrap;html=1;" parent="1" vertex="1">
                    <mxGeometry x="460" y="-75" width="120" height="80" as="geometry"/>
                </mxCell>
                <mxCell id="sHTVW4TpM1ne1m5UK_3u-59" value="" style="endArrow=none;html=1;rounded=0;" parent="1" source="sHTVW4TpM1ne1m5UK_3u-52" target="sHTVW4TpM1ne1m5UK_3u-58" edge="1">
                    <mxGeometry width="50" height="50" relative="1" as="geometry">
                        <mxPoint x="290" y="-240" as="sourcePoint"/>
                        <mxPoint x="290" y="-120" as="targetPoint"/>
                    </mxGeometry>
                </mxCell>
                <mxCell id="sHTVW4TpM1ne1m5UK_3u-58" value="concerne" style="ellipse;whiteSpace=wrap;html=1;" parent="1" vertex="1">
                    <mxGeometry x="230" y="-220" width="120" height="80" as="geometry"/>
                </mxCell>
                <mxCell id="10" style="edgeStyle=none;html=1;endArrow=none;endFill=0;" edge="1" parent="1" source="3" target="200">
                    <mxGeometry relative="1" as="geometry">
                        <mxPoint x="566.6706964861812" y="331.3970078590105" as="targetPoint"/>
                    </mxGeometry>
                </mxCell>
                <mxCell id="28" style="edgeStyle=none;html=1;endArrow=none;endFill=0;" edge="1" parent="1" source="3" target="11">
                    <mxGeometry relative="1" as="geometry"/>
                </mxCell>
                <mxCell id="37" value="1,1" style="edgeLabel;html=1;align=center;verticalAlign=middle;resizable=0;points=[];" vertex="1" connectable="0" parent="28">
                    <mxGeometry x="-0.6819" y="-1" relative="1" as="geometry">
                        <mxPoint as="offset"/>
                    </mxGeometry>
                </mxCell>
                <mxCell id="38" value="1, n" style="edgeLabel;html=1;align=center;verticalAlign=middle;resizable=0;points=[];" vertex="1" connectable="0" parent="28">
                    <mxGeometry x="0.4905" relative="1" as="geometry">
                        <mxPoint as="offset"/>
                    </mxGeometry>
                </mxCell>
                <mxCell id="3" value="employee" style="swimlane;fontStyle=0;childLayout=stackLayout;horizontal=1;startSize=30;horizontalStack=0;resizeParent=1;resizeParentMax=0;resizeLast=0;collapsible=1;marginBottom=0;whiteSpace=wrap;html=1;" vertex="1" parent="1">
                    <mxGeometry x="320" y="440" width="120" height="60" as="geometry"/>
                </mxCell>
                <mxCell id="14" style="edgeStyle=none;html=1;" edge="1" parent="1" source="11">
                    <mxGeometry relative="1" as="geometry">
                        <mxPoint x="579.9999999999999" y="335.00205642859305" as="targetPoint"/>
                    </mxGeometry>
                </mxCell>
                <mxCell id="11" value="manager" style="swimlane;fontStyle=0;childLayout=stackLayout;horizontal=1;startSize=30;horizontalStack=0;resizeParent=1;resizeParentMax=0;resizeLast=0;collapsible=1;marginBottom=0;whiteSpace=wrap;html=1;" vertex="1" parent="1">
                    <mxGeometry x="520" y="440" width="120" height="60" as="geometry"/>
                </mxCell>
                <mxCell id="19" style="edgeStyle=none;html=1;endArrow=none;endFill=0;" edge="1" parent="1" target="7HGyzuE9P1A4j1f57GSG-47">
                    <mxGeometry relative="1" as="geometry">
                        <mxPoint x="579.7197074588607" y="308.002836095912" as="sourcePoint"/>
                    </mxGeometry>
                </mxCell>
                <mxCell id="18" style="edgeStyle=none;html=1;endArrow=none;endFill=0;" edge="1" parent="1" source="16" target="200">
                    <mxGeometry relative="1" as="geometry">
                        <mxPoint x="593.679346029383" y="331.65691442681737" as="targetPoint"/>
                    </mxGeometry>
                </mxCell>
                <mxCell id="16" value="admin" style="swimlane;fontStyle=0;childLayout=stackLayout;horizontal=1;startSize=30;horizontalStack=0;resizeParent=1;resizeParentMax=0;resizeLast=0;collapsible=1;marginBottom=0;whiteSpace=wrap;html=1;" vertex="1" parent="1">
                    <mxGeometry x="720" y="440" width="120" height="60" as="geometry"/>
                </mxCell>
                <mxCell id="30" value="attaché a" style="ellipse;whiteSpace=wrap;html=1;" vertex="1" parent="1">
                    <mxGeometry x="520" y="600" width="120" height="80" as="geometry"/>
                </mxCell>
                <mxCell id="31" value="" style="endArrow=none;html=1;rounded=0;" edge="1" source="32" target="30" parent="1">
                    <mxGeometry width="50" height="50" relative="1" as="geometry">
                        <mxPoint x="203.25" y="740" as="sourcePoint"/>
                        <mxPoint x="253.25" y="690" as="targetPoint"/>
                    </mxGeometry>
                </mxCell>
                <mxCell id="32" value="1.n" style="text;html=1;align=center;verticalAlign=middle;resizable=0;points=[];autosize=1;strokeColor=none;fillColor=none;" vertex="1" parent="1">
                    <mxGeometry x="590" y="540" width="40" height="30" as="geometry"/>
                </mxCell>
                <mxCell id="33" value="" style="endArrow=none;html=1;rounded=0;" edge="1" target="32" parent="1">
                    <mxGeometry width="50" height="50" relative="1" as="geometry">
                        <mxPoint x="590" y="500" as="sourcePoint"/>
                        <mxPoint x="474.25" y="643" as="targetPoint"/>
                    </mxGeometry>
                </mxCell>
                <mxCell id="34" value="" style="endArrow=none;html=1;rounded=0;" edge="1" source="35" parent="1" target="11">
                    <mxGeometry width="50" height="50" relative="1" as="geometry">
                        <mxPoint x="203.25" y="740" as="sourcePoint"/>
                        <mxPoint x="379.9999999999998" y="637.4736225087927" as="targetPoint"/>
                    </mxGeometry>
                </mxCell>
                <mxCell id="35" value="1.1" style="text;html=1;align=center;verticalAlign=middle;resizable=0;points=[];autosize=1;strokeColor=none;fillColor=none;" vertex="1" parent="1">
                    <mxGeometry x="530" y="540" width="40" height="30" as="geometry"/>
                </mxCell>
                <mxCell id="36" value="" style="endArrow=none;html=1;rounded=0;" edge="1" source="30" target="35" parent="1">
                    <mxGeometry width="50" height="50" relative="1" as="geometry">
                        <mxPoint x="441.25" y="692" as="sourcePoint"/>
                        <mxPoint x="315.25" y="643" as="targetPoint"/>
                    </mxGeometry>
                </mxCell>
                <mxCell id="117" value="absence" style="swimlane;fontStyle=0;childLayout=stackLayout;horizontal=1;startSize=30;horizontalStack=0;resizeParent=1;resizeParentMax=0;resizeLast=0;collapsible=1;marginBottom=0;whiteSpace=wrap;html=1;" vertex="1" parent="1">
                    <mxGeometry x="1030" y="15" width="260" height="240" as="geometry"/>
                </mxCell>
                <mxCell id="118" value="&lt;u&gt;id_absence:&lt;/u&gt;&amp;nbsp;&amp;lt;PK&amp;gt;&lt;span style=&quot;white-space: pre;&quot;&gt;&#9;&lt;/span&gt;AUTO INCREMENT" style="text;strokeColor=none;fillColor=none;align=left;verticalAlign=middle;spacingLeft=4;spacingRight=4;overflow=hidden;points=[[0,0.5],[1,0.5]];portConstraint=eastwest;rotatable=0;whiteSpace=wrap;html=1;" vertex="1" parent="117">
                    <mxGeometry y="30" width="260" height="30" as="geometry"/>
                </mxCell>
                <mxCell id="199" value="id_user: &lt;span style=&quot;white-space: pre;&quot;&gt;&#9;&lt;/span&gt;&amp;nbsp; &amp;nbsp; &amp;lt;FK&amp;gt;&lt;span style=&quot;&quot;&gt;&#9;&lt;span style=&quot;white-space: pre;&quot;&gt;&#9;&lt;/span&gt;&lt;/span&gt;INT" style="text;strokeColor=none;fillColor=none;align=left;verticalAlign=middle;spacingLeft=4;spacingRight=4;overflow=hidden;points=[[0,0.5],[1,0.5]];portConstraint=eastwest;rotatable=0;whiteSpace=wrap;html=1;" vertex="1" parent="117">
                    <mxGeometry y="60" width="260" height="30" as="geometry"/>
                </mxCell>
                <mxCell id="119" value="dt_debut: &lt;span style=&quot;white-space: pre;&quot;&gt;&#9;&lt;/span&gt;&lt;span style=&quot;white-space: pre;&quot;&gt;&#9;&lt;/span&gt;Date" style="text;strokeColor=none;fillColor=none;align=left;verticalAlign=middle;spacingLeft=4;spacingRight=4;overflow=hidden;points=[[0,0.5],[1,0.5]];portConstraint=eastwest;rotatable=0;whiteSpace=wrap;html=1;" vertex="1" parent="117">
                    <mxGeometry y="90" width="260" height="30" as="geometry"/>
                </mxCell>
                <mxCell id="120" value="dt_fin: &lt;span style=&quot;white-space: pre;&quot;&gt;&#9;&lt;/span&gt;&lt;span style=&quot;white-space: pre;&quot;&gt;&#9;&lt;/span&gt;&lt;span style=&quot;white-space: pre;&quot;&gt;&#9;&lt;/span&gt;Date" style="text;strokeColor=none;fillColor=none;align=left;verticalAlign=middle;spacingLeft=4;spacingRight=4;overflow=hidden;points=[[0,0.5],[1,0.5]];portConstraint=eastwest;rotatable=0;whiteSpace=wrap;html=1;" vertex="1" parent="117">
                    <mxGeometry y="120" width="260" height="30" as="geometry"/>
                </mxCell>
                <mxCell id="121" value="type: &lt;span style=&quot;white-space: pre;&quot;&gt;&#9;&lt;/span&gt;&lt;span style=&quot;white-space: pre;&quot;&gt;&#9;&lt;/span&gt;&lt;span style=&quot;white-space: pre;&quot;&gt;&#9;&lt;/span&gt;VARCHAR 255" style="text;strokeColor=none;fillColor=none;align=left;verticalAlign=middle;spacingLeft=4;spacingRight=4;overflow=hidden;points=[[0,0.5],[1,0.5]];portConstraint=eastwest;rotatable=0;whiteSpace=wrap;html=1;" vertex="1" parent="117">
                    <mxGeometry y="150" width="260" height="30" as="geometry"/>
                </mxCell>
                <mxCell id="122" value="status: &lt;span style=&quot;white-space: pre;&quot;&gt;&#9;&lt;/span&gt;&lt;span style=&quot;white-space: pre;&quot;&gt;&#9;&lt;/span&gt;&lt;span style=&quot;white-space: pre;&quot;&gt;&#9;&lt;/span&gt;VARCHAR 255" style="text;strokeColor=none;fillColor=none;align=left;verticalAlign=middle;spacingLeft=4;spacingRight=4;overflow=hidden;points=[[0,0.5],[1,0.5]];portConstraint=eastwest;rotatable=0;whiteSpace=wrap;html=1;" vertex="1" parent="117">
                    <mxGeometry y="180" width="260" height="30" as="geometry"/>
                </mxCell>
                <mxCell id="123" value="motif: &lt;span style=&quot;white-space: pre;&quot;&gt;&#9;&lt;/span&gt;&lt;span style=&quot;white-space: pre;&quot;&gt;&#9;&lt;/span&gt;&lt;span style=&quot;white-space: pre;&quot;&gt;&#9;&lt;/span&gt;VARCHAR 510&lt;span style=&quot;white-space: pre;&quot;&gt;&#9;&lt;/span&gt;null" style="text;strokeColor=none;fillColor=none;align=left;verticalAlign=middle;spacingLeft=4;spacingRight=4;overflow=hidden;points=[[0,0.5],[1,0.5]];portConstraint=eastwest;rotatable=0;whiteSpace=wrap;html=1;" vertex="1" parent="117">
                    <mxGeometry y="210" width="260" height="30" as="geometry"/>
                </mxCell>
                <mxCell id="124" value="user" style="swimlane;fontStyle=0;childLayout=stackLayout;horizontal=1;startSize=30;horizontalStack=0;resizeParent=1;resizeParentMax=0;resizeLast=0;collapsible=1;marginBottom=0;whiteSpace=wrap;html=1;" vertex="1" parent="1">
                    <mxGeometry x="1436.75" y="15" width="303.25" height="240" as="geometry"/>
                </mxCell>
                <mxCell id="125" value="&lt;u&gt;id_user:&lt;/u&gt;&amp;nbsp;&lt;span style=&quot;white-space: pre;&quot;&gt;&#9;&lt;/span&gt;&lt;span style=&quot;white-space: pre;&quot;&gt;&#9;&lt;/span&gt;&amp;nbsp; &amp;nbsp;&amp;lt;PK&amp;gt;&lt;span style=&quot;white-space: pre;&quot;&gt;&#9;&lt;span style=&quot;white-space: pre;&quot;&gt;&#9;&lt;/span&gt;&lt;/span&gt;AUTO INCREMENT" style="text;strokeColor=none;fillColor=none;align=left;verticalAlign=middle;spacingLeft=4;spacingRight=4;overflow=hidden;points=[[0,0.5],[1,0.5]];portConstraint=eastwest;rotatable=0;whiteSpace=wrap;html=1;" vertex="1" parent="124">
                    <mxGeometry y="30" width="303.25" height="30" as="geometry"/>
                </mxCell>
                <mxCell id="198" value="id_departement: &amp;lt;FK&amp;gt;&lt;span style=&quot;&quot;&gt;&#9;&lt;span style=&quot;white-space: pre;&quot;&gt;&#9;&lt;/span&gt;&lt;/span&gt;&lt;span style=&quot;&quot;&gt;&amp;nbsp; &amp;nbsp; &amp;nbsp; &amp;nbsp; &lt;/span&gt;INT" style="text;strokeColor=none;fillColor=none;align=left;verticalAlign=middle;spacingLeft=4;spacingRight=4;overflow=hidden;points=[[0,0.5],[1,0.5]];portConstraint=eastwest;rotatable=0;whiteSpace=wrap;html=1;" vertex="1" parent="124">
                    <mxGeometry y="60" width="303.25" height="30" as="geometry"/>
                </mxCell>
                <mxCell id="126" value="nom: &lt;span style=&quot;white-space: pre;&quot;&gt;&#9;&lt;/span&gt;&lt;span style=&quot;white-space: pre;&quot;&gt;&#9;&lt;/span&gt;&lt;span style=&quot;white-space: pre;&quot;&gt;&#9;&lt;/span&gt;&lt;span style=&quot;white-space: pre;&quot;&gt;&#9;&lt;/span&gt;&lt;span style=&quot;white-space: pre;&quot;&gt;&#9;&lt;/span&gt;VARCHAR 255" style="text;strokeColor=none;fillColor=none;align=left;verticalAlign=middle;spacingLeft=4;spacingRight=4;overflow=hidden;points=[[0,0.5],[1,0.5]];portConstraint=eastwest;rotatable=0;whiteSpace=wrap;html=1;" vertex="1" parent="124">
                    <mxGeometry y="90" width="303.25" height="30" as="geometry"/>
                </mxCell>
                <mxCell id="127" value="prenom: &lt;span style=&quot;white-space: pre;&quot;&gt;&#9;&lt;/span&gt;&lt;span style=&quot;white-space: pre;&quot;&gt;&#9;&lt;/span&gt;&lt;span style=&quot;white-space: pre;&quot;&gt;&#9;&lt;/span&gt;&lt;span style=&quot;white-space: pre;&quot;&gt;&#9;&lt;/span&gt;&lt;span style=&quot;white-space: pre;&quot;&gt;&#9;&lt;/span&gt;VARCHAR 255" style="text;strokeColor=none;fillColor=none;align=left;verticalAlign=middle;spacingLeft=4;spacingRight=4;overflow=hidden;points=[[0,0.5],[1,0.5]];portConstraint=eastwest;rotatable=0;whiteSpace=wrap;html=1;" vertex="1" parent="124">
                    <mxGeometry y="120" width="303.25" height="30" as="geometry"/>
                </mxCell>
                <mxCell id="128" value="mail: &lt;span style=&quot;white-space: pre;&quot;&gt;&#9;&lt;/span&gt;&lt;span style=&quot;white-space: pre;&quot;&gt;&#9;&lt;/span&gt;&lt;span style=&quot;white-space: pre;&quot;&gt;&#9;&lt;/span&gt;&lt;span style=&quot;white-space: pre;&quot;&gt;&#9;&lt;/span&gt;&lt;span style=&quot;white-space: pre;&quot;&gt;&#9;&lt;/span&gt;VARCHAR 255" style="text;strokeColor=none;fillColor=none;align=left;verticalAlign=middle;spacingLeft=4;spacingRight=4;overflow=hidden;points=[[0,0.5],[1,0.5]];portConstraint=eastwest;rotatable=0;whiteSpace=wrap;html=1;" vertex="1" parent="124">
                    <mxGeometry y="150" width="303.25" height="30" as="geometry"/>
                </mxCell>
                <mxCell id="129" value="role: &lt;span style=&quot;white-space: pre;&quot;&gt;&#9;&lt;/span&gt;&lt;span style=&quot;white-space: pre;&quot;&gt;&#9;&lt;/span&gt;&lt;span style=&quot;white-space: pre;&quot;&gt;&#9;&lt;/span&gt;&lt;span style=&quot;white-space: pre;&quot;&gt;&#9;&lt;/span&gt;&lt;span style=&quot;white-space: pre;&quot;&gt;&#9;&lt;/span&gt;VARCHAR 255" style="text;strokeColor=none;fillColor=none;align=left;verticalAlign=middle;spacingLeft=4;spacingRight=4;overflow=hidden;points=[[0,0.5],[1,0.5]];portConstraint=eastwest;rotatable=0;whiteSpace=wrap;html=1;" vertex="1" parent="124">
                    <mxGeometry y="180" width="303.25" height="30" as="geometry"/>
                </mxCell>
                <mxCell id="130" value="mdp: &lt;span style=&quot;white-space: pre;&quot;&gt;&#9;&lt;/span&gt;&lt;span style=&quot;white-space: pre;&quot;&gt;&#9;&lt;/span&gt;&lt;span style=&quot;white-space: pre;&quot;&gt;&#9;&lt;/span&gt;&lt;span style=&quot;white-space: pre;&quot;&gt;&#9;&lt;/span&gt;&lt;span style=&quot;white-space: pre;&quot;&gt;&#9;&lt;/span&gt;VARCHAR 255" style="text;strokeColor=none;fillColor=none;align=left;verticalAlign=middle;spacingLeft=4;spacingRight=4;overflow=hidden;points=[[0,0.5],[1,0.5]];portConstraint=eastwest;rotatable=0;whiteSpace=wrap;html=1;" vertex="1" parent="124">
                    <mxGeometry y="210" width="303.25" height="30" as="geometry"/>
                </mxCell>
                <mxCell id="131" value="" style="endArrow=none;html=1;rounded=0;" edge="1" source="124" target="117" parent="1">
                    <mxGeometry width="50" height="50" relative="1" as="geometry">
                        <mxPoint x="1150" y="120" as="sourcePoint"/>
                        <mxPoint x="1330" y="-177" as="targetPoint"/>
                    </mxGeometry>
                </mxCell>
                <mxCell id="132" value="" style="endArrow=none;html=1;rounded=0;exitX=0;exitY=0.5;exitDx=0;exitDy=0;entryX=1;entryY=0.5;entryDx=0;entryDy=0;" edge="1" source="137" parent="1">
                    <mxGeometry width="50" height="50" relative="1" as="geometry">
                        <mxPoint x="1830" y="85" as="sourcePoint"/>
                        <mxPoint x="1560" y="115" as="targetPoint"/>
                    </mxGeometry>
                </mxCell>
                <mxCell id="138" value="département/service" style="swimlane;fontStyle=0;childLayout=stackLayout;horizontal=1;startSize=30;horizontalStack=0;resizeParent=1;resizeParentMax=0;resizeLast=0;collapsible=1;marginBottom=0;whiteSpace=wrap;html=1;" vertex="1" parent="1">
                    <mxGeometry x="1436.75" y="-140" width="303.25" height="120" as="geometry"/>
                </mxCell>
                <mxCell id="139" value="&lt;u&gt;id_deppartement:&lt;/u&gt;&amp;nbsp;&lt;span style=&quot;white-space: pre;&quot;&gt;&#9;&lt;/span&gt;&amp;lt;PK&amp;gt;&lt;span style=&quot;white-space: pre;&quot;&gt;&#9;&lt;/span&gt;AUTO INCREMENT" style="text;strokeColor=none;fillColor=none;align=left;verticalAlign=middle;spacingLeft=4;spacingRight=4;overflow=hidden;points=[[0,0.5],[1,0.5]];portConstraint=eastwest;rotatable=0;whiteSpace=wrap;html=1;" vertex="1" parent="138">
                    <mxGeometry y="30" width="303.25" height="30" as="geometry"/>
                </mxCell>
                <mxCell id="197" value="id_organisation: &lt;span style=&quot;white-space: pre;&quot;&gt;&#9;&lt;/span&gt;&amp;lt;FK&amp;gt;&lt;span style=&quot;&quot;&gt;&#9;&lt;span style=&quot;white-space: pre;&quot;&gt;&#9;&lt;/span&gt;&lt;/span&gt;INT" style="text;strokeColor=none;fillColor=none;align=left;verticalAlign=middle;spacingLeft=4;spacingRight=4;overflow=hidden;points=[[0,0.5],[1,0.5]];portConstraint=eastwest;rotatable=0;whiteSpace=wrap;html=1;" vertex="1" parent="138">
                    <mxGeometry y="60" width="303.25" height="30" as="geometry"/>
                </mxCell>
                <mxCell id="140" value="nom: &lt;span style=&quot;white-space: pre;&quot;&gt;&#9;&lt;/span&gt;&lt;span style=&quot;white-space: pre;&quot;&gt;&#9;&lt;/span&gt;&lt;span style=&quot;white-space: pre;&quot;&gt;&#9;&lt;/span&gt;&lt;span style=&quot;white-space: pre;&quot;&gt;&#9;&lt;/span&gt;&lt;span style=&quot;white-space: pre;&quot;&gt;&#9;&lt;/span&gt;VARCHAR 255" style="text;strokeColor=none;fillColor=none;align=left;verticalAlign=middle;spacingLeft=4;spacingRight=4;overflow=hidden;points=[[0,0.5],[1,0.5]];portConstraint=eastwest;rotatable=0;whiteSpace=wrap;html=1;" vertex="1" parent="138">
                    <mxGeometry y="90" width="303.25" height="30" as="geometry"/>
                </mxCell>
                <mxCell id="141" value="" style="endArrow=none;html=1;rounded=0;" edge="1" source="160" target="138" parent="1">
                    <mxGeometry width="50" height="50" relative="1" as="geometry">
                        <mxPoint x="1610" y="-76.90721649484544" as="sourcePoint"/>
                        <mxPoint x="1500" y="275" as="targetPoint"/>
                    </mxGeometry>
                </mxCell>
                <mxCell id="152" value="absence specifique" style="swimlane;fontStyle=0;childLayout=stackLayout;horizontal=1;startSize=30;horizontalStack=0;resizeParent=1;resizeParentMax=0;resizeLast=0;collapsible=1;marginBottom=0;whiteSpace=wrap;html=1;" vertex="1" parent="1">
                    <mxGeometry x="1030" y="-465" width="260" height="240" as="geometry"/>
                </mxCell>
                <mxCell id="153" value="&lt;u&gt;id_absence_specifique:&lt;span style=&quot;white-space: pre;&quot;&gt;&#9;&lt;/span&gt;&lt;/u&gt; AUTO INCREMENT" style="text;strokeColor=none;fillColor=none;align=left;verticalAlign=middle;spacingLeft=4;spacingRight=4;overflow=hidden;points=[[0,0.5],[1,0.5]];portConstraint=eastwest;rotatable=0;whiteSpace=wrap;html=1;" vertex="1" parent="152">
                    <mxGeometry y="30" width="260" height="30" as="geometry"/>
                </mxCell>
                <mxCell id="196" value="id_organisation:&amp;nbsp; &amp;lt;FK&amp;gt;&lt;span style=&quot;white-space: pre;&quot;&gt;&#9;&lt;/span&gt;INT" style="text;strokeColor=none;fillColor=none;align=left;verticalAlign=middle;spacingLeft=4;spacingRight=4;overflow=hidden;points=[[0,0.5],[1,0.5]];portConstraint=eastwest;rotatable=0;whiteSpace=wrap;html=1;" vertex="1" parent="152">
                    <mxGeometry y="60" width="260" height="30" as="geometry"/>
                </mxCell>
                <mxCell id="154" value="nom: &lt;span style=&quot;white-space: pre;&quot;&gt;&#9;&lt;/span&gt;&lt;span style=&quot;white-space: pre;&quot;&gt;&#9;&lt;/span&gt;&lt;span style=&quot;white-space: pre;&quot;&gt;&#9;&lt;/span&gt;&lt;span style=&quot;white-space: pre;&quot;&gt;&#9;&lt;/span&gt;VARCHAR 255" style="text;strokeColor=none;fillColor=none;align=left;verticalAlign=middle;spacingLeft=4;spacingRight=4;overflow=hidden;points=[[0,0.5],[1,0.5]];portConstraint=eastwest;rotatable=0;whiteSpace=wrap;html=1;" vertex="1" parent="152">
                    <mxGeometry y="90" width="260" height="30" as="geometry"/>
                </mxCell>
                <mxCell id="155" value="dt_debut: &lt;span style=&quot;white-space: pre;&quot;&gt;&#9;&lt;/span&gt;&lt;span style=&quot;white-space: pre;&quot;&gt;&#9;&lt;/span&gt;&lt;span style=&quot;white-space: pre;&quot;&gt;&#9;&lt;/span&gt;Date" style="text;strokeColor=none;fillColor=none;align=left;verticalAlign=middle;spacingLeft=4;spacingRight=4;overflow=hidden;points=[[0,0.5],[1,0.5]];portConstraint=eastwest;rotatable=0;whiteSpace=wrap;html=1;" vertex="1" parent="152">
                    <mxGeometry y="120" width="260" height="30" as="geometry"/>
                </mxCell>
                <mxCell id="156" value="dt_fin: &lt;span style=&quot;white-space: pre;&quot;&gt;&#9;&lt;/span&gt;&lt;span style=&quot;white-space: pre;&quot;&gt;&#9;&lt;/span&gt;&lt;span style=&quot;white-space: pre;&quot;&gt;&#9;&lt;/span&gt;&lt;span style=&quot;white-space: pre;&quot;&gt;&#9;&lt;/span&gt;Date" style="text;strokeColor=none;fillColor=none;align=left;verticalAlign=middle;spacingLeft=4;spacingRight=4;overflow=hidden;points=[[0,0.5],[1,0.5]];portConstraint=eastwest;rotatable=0;whiteSpace=wrap;html=1;" vertex="1" parent="152">
                    <mxGeometry y="150" width="260" height="30" as="geometry"/>
                </mxCell>
                <mxCell id="157" value="status: &lt;span style=&quot;white-space: pre;&quot;&gt;&#9;&lt;/span&gt;&lt;span style=&quot;white-space: pre;&quot;&gt;&#9;&lt;/span&gt;&lt;span style=&quot;white-space: pre;&quot;&gt;&#9;&lt;/span&gt;&lt;span style=&quot;white-space: pre;&quot;&gt;&#9;&lt;/span&gt;VARCHAR 255" style="text;strokeColor=none;fillColor=none;align=left;verticalAlign=middle;spacingLeft=4;spacingRight=4;overflow=hidden;points=[[0,0.5],[1,0.5]];portConstraint=eastwest;rotatable=0;whiteSpace=wrap;html=1;" vertex="1" parent="152">
                    <mxGeometry y="180" width="260" height="30" as="geometry"/>
                </mxCell>
                <mxCell id="158" value="motif: &lt;span style=&quot;white-space: pre;&quot;&gt;&#9;&lt;/span&gt;&lt;span style=&quot;white-space: pre;&quot;&gt;&#9;&lt;/span&gt;&lt;span style=&quot;white-space: pre;&quot;&gt;&#9;&lt;/span&gt;&lt;span style=&quot;white-space: pre;&quot;&gt;&#9;&lt;/span&gt;VARCHAR 255" style="text;strokeColor=none;fillColor=none;align=left;verticalAlign=middle;spacingLeft=4;spacingRight=4;overflow=hidden;points=[[0,0.5],[1,0.5]];portConstraint=eastwest;rotatable=0;whiteSpace=wrap;html=1;" vertex="1" parent="152">
                    <mxGeometry y="210" width="260" height="30" as="geometry"/>
                </mxCell>
                <mxCell id="160" value="organisation" style="swimlane;fontStyle=0;childLayout=stackLayout;horizontal=1;startSize=30;horizontalStack=0;resizeParent=1;resizeParentMax=0;resizeLast=0;collapsible=1;marginBottom=0;whiteSpace=wrap;html=1;" vertex="1" parent="1">
                    <mxGeometry x="1030" y="-125" width="260" height="90" as="geometry"/>
                </mxCell>
                <mxCell id="161" value="&lt;u&gt;id_organisation:&lt;/u&gt;&amp;nbsp;&amp;lt;PK&amp;gt;&amp;nbsp; AUTO INCREMENT" style="text;strokeColor=none;fillColor=none;align=left;verticalAlign=middle;spacingLeft=4;spacingRight=4;overflow=hidden;points=[[0,0.5],[1,0.5]];portConstraint=eastwest;rotatable=0;whiteSpace=wrap;html=1;" vertex="1" parent="160">
                    <mxGeometry y="30" width="260" height="30" as="geometry"/>
                </mxCell>
                <mxCell id="162" value="nom: &lt;span style=&quot;white-space: pre;&quot;&gt;&#9;&lt;/span&gt;&lt;span style=&quot;white-space: pre;&quot;&gt;&#9;&lt;/span&gt;&lt;span style=&quot;white-space: pre;&quot;&gt;&#9;&lt;/span&gt;&lt;span style=&quot;white-space: pre;&quot;&gt;&#9;&lt;/span&gt;VARCHAR 255" style="text;strokeColor=none;fillColor=none;align=left;verticalAlign=middle;spacingLeft=4;spacingRight=4;overflow=hidden;points=[[0,0.5],[1,0.5]];portConstraint=eastwest;rotatable=0;whiteSpace=wrap;html=1;" vertex="1" parent="160">
                    <mxGeometry y="60" width="260" height="30" as="geometry"/>
                </mxCell>
                <mxCell id="163" value="" style="endArrow=none;html=1;rounded=0;" edge="1" source="124" target="138" parent="1">
                    <mxGeometry width="50" height="50" relative="1" as="geometry">
                        <mxPoint x="1690" y="50" as="sourcePoint"/>
                        <mxPoint x="1410" y="-95" as="targetPoint"/>
                    </mxGeometry>
                </mxCell>
                <mxCell id="167" value="" style="endArrow=none;html=1;rounded=0;" edge="1" source="160" parent="1">
                    <mxGeometry width="50" height="50" relative="1" as="geometry">
                        <mxPoint x="1480" y="-80" as="sourcePoint"/>
                        <mxPoint x="1290" y="-80" as="targetPoint"/>
                    </mxGeometry>
                </mxCell>
                <mxCell id="175" value="" style="endArrow=none;html=1;rounded=0;" edge="1" source="152" target="160" parent="1">
                    <mxGeometry width="50" height="50" relative="1" as="geometry">
                        <mxPoint x="1220" y="-525" as="sourcePoint"/>
                        <mxPoint x="1220" y="-265" as="targetPoint"/>
                    </mxGeometry>
                </mxCell>
                <mxCell id="184" style="edgeStyle=none;html=1;endArrow=none;endFill=0;" edge="1" source="201" target="124" parent="1">
                    <mxGeometry relative="1" as="geometry">
                        <mxPoint x="1509.6900063761364" y="263.00335453023945" as="sourcePoint"/>
                    </mxGeometry>
                </mxCell>
                <mxCell id="195" value="MCD" style="swimlane;whiteSpace=wrap;html=1;" vertex="1" parent="1">
                    <mxGeometry x="10" y="-550" width="890" height="1250" as="geometry"/>
                </mxCell>
                <mxCell id="200" value="&lt;font style=&quot;font-size: 16px;&quot;&gt;X&lt;/font&gt;" style="triangle;whiteSpace=wrap;html=1;rotation=-90;" vertex="1" parent="195">
                    <mxGeometry x="550" y="850" width="40" height="53.33" as="geometry"/>
                </mxCell>
                <mxCell id="7HGyzuE9P1A4j1f57GSG-108" value="appartient" style="ellipse;whiteSpace=wrap;html=1;" parent="195" vertex="1">
                    <mxGeometry x="690" y="675" width="120" height="80" as="geometry"/>
                </mxCell>
                <mxCell id="219" value="MPD" style="swimlane;whiteSpace=wrap;html=1;fontSize=16;" vertex="1" parent="1">
                    <mxGeometry x="970" y="-545" width="910" height="1020" as="geometry"/>
                </mxCell>
                <mxCell id="213" value="employee" style="swimlane;fontStyle=0;childLayout=stackLayout;horizontal=1;startSize=30;horizontalStack=0;resizeParent=1;resizeParentMax=0;resizeLast=0;collapsible=1;marginBottom=0;whiteSpace=wrap;html=1;" vertex="1" parent="219">
                    <mxGeometry x="290" y="930" width="183.25" height="60" as="geometry"/>
                </mxCell>
                <mxCell id="215" value="id_manager: &amp;lt;FK&amp;gt;" style="text;strokeColor=none;fillColor=none;align=left;verticalAlign=middle;spacingLeft=4;spacingRight=4;overflow=hidden;points=[[0,0.5],[1,0.5]];portConstraint=eastwest;rotatable=0;whiteSpace=wrap;html=1;" vertex="1" parent="213">
                    <mxGeometry y="30" width="183.25" height="30" as="geometry"/>
                </mxCell>
                <mxCell id="217" value="manager" style="swimlane;fontStyle=0;childLayout=stackLayout;horizontal=1;startSize=30;horizontalStack=0;resizeParent=1;resizeParentMax=0;resizeLast=0;collapsible=1;marginBottom=0;whiteSpace=wrap;html=1;" vertex="1" parent="219">
                    <mxGeometry x="524.25" y="930" width="183.25" height="60" as="geometry"/>
                </mxCell>
                <mxCell id="218" value="id_manager: &lt;span style=&quot;white-space: pre;&quot;&gt;&#9;&lt;/span&gt;&amp;lt;FK&amp;gt;&lt;span style=&quot;&quot;&gt;&amp;nbsp;&lt;span style=&quot;white-space: pre;&quot;&gt;&#9;&lt;/span&gt;&amp;nbsp;&lt;/span&gt;&lt;span style=&quot;&quot;&gt;&lt;/span&gt;null" style="text;strokeColor=none;fillColor=none;align=left;verticalAlign=middle;spacingLeft=4;spacingRight=4;overflow=hidden;points=[[0,0.5],[1,0.5]];portConstraint=eastwest;rotatable=0;whiteSpace=wrap;html=1;" vertex="1" parent="217">
                    <mxGeometry y="30" width="183.25" height="30" as="geometry"/>
                </mxCell>
                <mxCell id="177" style="edgeStyle=none;html=1;endArrow=none;endFill=0;" edge="1" source="213" target="201" parent="219">
                    <mxGeometry relative="1" as="geometry">
                        <mxPoint x="464.4144231893092" y="960" as="sourcePoint"/>
                    </mxGeometry>
                </mxCell>
                <mxCell id="201" value="&lt;font style=&quot;font-size: 16px;&quot;&gt;X&lt;/font&gt;" style="triangle;whiteSpace=wrap;html=1;rotation=-90;" vertex="1" parent="219">
                    <mxGeometry x="595.8800000000001" y="820" width="40" height="53.33" as="geometry"/>
                </mxCell>
                <mxCell id="187" value="admin" style="swimlane;fontStyle=0;childLayout=stackLayout;horizontal=1;startSize=30;horizontalStack=0;resizeParent=1;resizeParentMax=0;resizeLast=0;collapsible=1;marginBottom=0;whiteSpace=wrap;html=1;" vertex="1" parent="219">
                    <mxGeometry x="750" y="930" width="120" height="60" as="geometry"/>
                </mxCell>
                <mxCell id="178" style="edgeStyle=none;html=1;endArrow=none;endFill=0;" edge="1" source="213" target="217" parent="219">
                    <mxGeometry relative="1" as="geometry">
                        <mxPoint x="490" y="998.9473684210525" as="sourcePoint"/>
                        <mxPoint x="570" y="990" as="targetPoint"/>
                    </mxGeometry>
                </mxCell>
                <mxCell id="202" value="" style="edgeStyle=none;html=1;endArrow=none;" edge="1" parent="219" source="217" target="201">
                    <mxGeometry relative="1" as="geometry">
                        <mxPoint x="652.0589403097006" y="960" as="sourcePoint"/>
                        <mxPoint x="539.9999999999995" y="835.0020564285928" as="targetPoint"/>
                    </mxGeometry>
                </mxCell>
                <mxCell id="186" style="edgeStyle=none;html=1;endArrow=none;endFill=0;" edge="1" source="187" target="201" parent="219">
                    <mxGeometry relative="1" as="geometry"/>
                </mxCell>
            </root>
        </mxGraphModel>
    </diagram>
</mxfile>